<?xml version="1.0" encoding="UTF-8" standalone="no"?>
<svg
   height="16"
   viewBox="0 0 16 16"
   width="16"
   version="1.1"
   id="svg1"
   sodipodi:docname="spanning_cell_icon.svg"
   inkscape:version="1.3.2 (091e20e, 2023-11-25, custom)"
   xmlns:inkscape="http://www.inkscape.org/namespaces/inkscape"
   xmlns:sodipodi="http://sodipodi.sourceforge.net/DTD/sodipodi-0.dtd"
   xmlns="http://www.w3.org/2000/svg"
   xmlns:svg="http://www.w3.org/2000/svg">
  <defs
     id="defs1" />
  <sodipodi:namedview
     id="namedview1"
     pagecolor="#ffffff"
     bordercolor="#000000"
     borderopacity="0.25"
     inkscape:showpageshadow="2"
     inkscape:pageopacity="0.0"
     inkscape:pagecheckerboard="0"
     inkscape:deskcolor="#d1d1d1"
     inkscape:zoom="50.8125"
     inkscape:cx="8"
     inkscape:cy="8.698647"
     inkscape:window-width="1350"
     inkscape:window-height="1032"
     inkscape:window-x="1649"
     inkscape:window-y="53"
     inkscape:window-maximized="0"
     inkscape:current-layer="svg1" />
  <rect
     style="fill:#d91f1f;fill-opacity:1"
     id="rect2"
     width="6.8880687"
     height="6.8093481"
     x="6.6322265"
     y="6.612546" />
  <rect
     style="fill:#d91f1f;fill-opacity:1"
     id="rect1"
     width="7.2029519"
     height="2.9323492"
     x="2.5387454"
     y="2.5387454" />
  <path
     d="M 3,1 C 1.8954305,1 1,1.8954305 1,3 v 10 c 0,1.104569 0.8954305,2 2,2 h 10 c 1.104569,0 2,-0.895431 2,-2 V 3 C 15,1.8954305 14.104569,1 13,1 Z M 3,3 H 8.99508 V 5 H 3 Z m 8,0 h 2 V 5 H 11 Z M 3,7 H 5 V 9 H 3 Z m 4,0 h 5.99508 v 5.99508 H 7 Z m -4,4 h 2 v 2 H 3 Z"
     fill="#8eef97"
     id="path1"
     sodipodi:nodetypes="sssssssssccccccccccccccccccccccccc" />
</svg>
